<mxfile host="app.diagrams.net" modified="2024-04-09T02:16:38.947Z" agent="Mozilla/5.0 (Windows NT 10.0; Win64; x64) AppleWebKit/537.36 (KHTML, like Gecko) Chrome/123.0.0.0 Safari/537.36" etag="DVpb-Mx4VyHLQ5OllzCV" version="24.2.2" type="google">
  <diagram name="Page-1" id="13e1069c-82ec-6db2-03f1-153e76fe0fe0">
    <mxGraphModel grid="1" page="1" gridSize="10" guides="1" tooltips="1" connect="1" arrows="1" fold="1" pageScale="1" pageWidth="1100" pageHeight="850" background="none" math="0" shadow="0">
      <root>
        <mxCell id="0" />
        <mxCell id="1" parent="0" />
        <mxCell id="7baba1c4bc27f4b0-2" value=":Administrador" style="shape=umlLifeline;perimeter=lifelinePerimeter;whiteSpace=wrap;html=1;container=1;collapsible=0;recursiveResize=0;outlineConnect=0;rounded=1;shadow=0;comic=0;labelBackgroundColor=none;strokeWidth=1;fontFamily=Verdana;fontSize=12;align=center;" vertex="1" parent="1">
          <mxGeometry x="290" y="80" width="100" height="680" as="geometry" />
        </mxCell>
        <mxCell id="8Pu2nY55P8cbUDqZ4kMR-9" value="" style="html=1;points=[[0,0,0,0,5],[0,1,0,0,-5],[1,0,0,0,5],[1,1,0,0,-5]];perimeter=orthogonalPerimeter;outlineConnect=0;targetShapes=umlLifeline;portConstraint=eastwest;newEdgeStyle={&quot;curved&quot;:0,&quot;rounded&quot;:0};" vertex="1" parent="7baba1c4bc27f4b0-2">
          <mxGeometry x="45" y="90" width="10" height="190" as="geometry" />
        </mxCell>
        <mxCell id="8Pu2nY55P8cbUDqZ4kMR-28" value="" style="html=1;points=[[0,0,0,0,5],[0,1,0,0,-5],[1,0,0,0,5],[1,1,0,0,-5]];perimeter=orthogonalPerimeter;outlineConnect=0;targetShapes=umlLifeline;portConstraint=eastwest;newEdgeStyle={&quot;curved&quot;:0,&quot;rounded&quot;:0};" vertex="1" parent="7baba1c4bc27f4b0-2">
          <mxGeometry x="45" y="390" width="10" height="80" as="geometry" />
        </mxCell>
        <mxCell id="8Pu2nY55P8cbUDqZ4kMR-31" value="ver_datos_usuario()" style="html=1;verticalAlign=bottom;endArrow=block;curved=0;rounded=0;exitX=1;exitY=0;exitDx=0;exitDy=5;exitPerimeter=0;entryX=0;entryY=0;entryDx=0;entryDy=5;entryPerimeter=0;" edge="1" parent="7baba1c4bc27f4b0-2" source="8Pu2nY55P8cbUDqZ4kMR-29" target="8Pu2nY55P8cbUDqZ4kMR-28">
          <mxGeometry width="80" relative="1" as="geometry">
            <mxPoint x="50" y="210" as="sourcePoint" />
            <mxPoint x="-30" y="410" as="targetPoint" />
          </mxGeometry>
        </mxCell>
        <mxCell id="8Pu2nY55P8cbUDqZ4kMR-36" value="mostrar_datos_usuario(nombre_usuario)" style="html=1;verticalAlign=bottom;endArrow=open;dashed=1;endSize=8;curved=0;rounded=0;exitX=0;exitY=1;exitDx=0;exitDy=-5;exitPerimeter=0;" edge="1" parent="7baba1c4bc27f4b0-2" source="8Pu2nY55P8cbUDqZ4kMR-33">
          <mxGeometry relative="1" as="geometry">
            <mxPoint x="130" y="410" as="sourcePoint" />
            <mxPoint x="-200.5" y="505" as="targetPoint" />
          </mxGeometry>
        </mxCell>
        <mxCell id="8Pu2nY55P8cbUDqZ4kMR-2" value="" style="shape=umlLifeline;perimeter=lifelinePerimeter;whiteSpace=wrap;html=1;container=1;dropTarget=0;collapsible=0;recursiveResize=0;outlineConnect=0;portConstraint=eastwest;newEdgeStyle={&quot;curved&quot;:0,&quot;rounded&quot;:0};participant=umlActor;size=80;" vertex="1" parent="7baba1c4bc27f4b0-2">
          <mxGeometry x="-220" y="-40" width="40" height="720" as="geometry" />
        </mxCell>
        <mxCell id="8Pu2nY55P8cbUDqZ4kMR-5" value="" style="html=1;points=[[0,0,0,0,5],[0,1,0,0,-5],[1,0,0,0,5],[1,1,0,0,-5]];perimeter=orthogonalPerimeter;outlineConnect=0;targetShapes=umlLifeline;portConstraint=eastwest;newEdgeStyle={&quot;curved&quot;:0,&quot;rounded&quot;:0};" vertex="1" parent="8Pu2nY55P8cbUDqZ4kMR-2">
          <mxGeometry x="15" y="130" width="10" height="190" as="geometry" />
        </mxCell>
        <mxCell id="8Pu2nY55P8cbUDqZ4kMR-29" value="" style="html=1;points=[[0,0,0,0,5],[0,1,0,0,-5],[1,0,0,0,5],[1,1,0,0,-5]];perimeter=orthogonalPerimeter;outlineConnect=0;targetShapes=umlLifeline;portConstraint=eastwest;newEdgeStyle={&quot;curved&quot;:0,&quot;rounded&quot;:0};" vertex="1" parent="8Pu2nY55P8cbUDqZ4kMR-2">
          <mxGeometry x="15" y="430" width="10" height="120" as="geometry" />
        </mxCell>
        <mxCell id="8Pu2nY55P8cbUDqZ4kMR-8" value="iniciar_sesion(nombre_usuario, contraseña)" style="html=1;verticalAlign=bottom;endArrow=block;curved=0;rounded=0;exitX=1;exitY=0;exitDx=0;exitDy=5;exitPerimeter=0;" edge="1" parent="7baba1c4bc27f4b0-2" source="8Pu2nY55P8cbUDqZ4kMR-5" target="8Pu2nY55P8cbUDqZ4kMR-9">
          <mxGeometry width="80" relative="1" as="geometry">
            <mxPoint x="220" y="250" as="sourcePoint" />
            <mxPoint x="300" y="250" as="targetPoint" />
          </mxGeometry>
        </mxCell>
        <mxCell id="D8GgtyqZ0GBGLA3rrNBS-2" value="mostrar_usuarios()" style="html=1;verticalAlign=bottom;endArrow=open;dashed=1;endSize=8;curved=0;rounded=0;entryX=1;entryY=1;entryDx=0;entryDy=-5;entryPerimeter=0;" edge="1" parent="7baba1c4bc27f4b0-2" source="7baba1c4bc27f4b0-2" target="8Pu2nY55P8cbUDqZ4kMR-5">
          <mxGeometry relative="1" as="geometry">
            <mxPoint x="300" y="330" as="sourcePoint" />
            <mxPoint x="220" y="330" as="targetPoint" />
          </mxGeometry>
        </mxCell>
        <mxCell id="7baba1c4bc27f4b0-3" value=":BDUsuarios" style="shape=umlLifeline;perimeter=lifelinePerimeter;whiteSpace=wrap;html=1;container=1;collapsible=0;recursiveResize=0;outlineConnect=0;rounded=1;shadow=0;comic=0;labelBackgroundColor=none;strokeWidth=1;fontFamily=Verdana;fontSize=12;align=center;" vertex="1" parent="1">
          <mxGeometry x="560" y="80" width="120" height="640" as="geometry" />
        </mxCell>
        <mxCell id="8Pu2nY55P8cbUDqZ4kMR-12" value="" style="html=1;points=[[0,0,0,0,5],[0,1,0,0,-5],[1,0,0,0,5],[1,1,0,0,-5]];perimeter=orthogonalPerimeter;outlineConnect=0;targetShapes=umlLifeline;portConstraint=eastwest;newEdgeStyle={&quot;curved&quot;:0,&quot;rounded&quot;:0};" vertex="1" parent="7baba1c4bc27f4b0-3">
          <mxGeometry x="55" y="170" width="10" height="150" as="geometry" />
        </mxCell>
        <mxCell id="8Pu2nY55P8cbUDqZ4kMR-33" value="" style="html=1;points=[[0,0,0,0,5],[0,1,0,0,-5],[1,0,0,0,5],[1,1,0,0,-5]];perimeter=orthogonalPerimeter;outlineConnect=0;targetShapes=umlLifeline;portConstraint=eastwest;newEdgeStyle={&quot;curved&quot;:0,&quot;rounded&quot;:0};" vertex="1" parent="7baba1c4bc27f4b0-3">
          <mxGeometry x="55" y="430" width="10" height="80" as="geometry" />
        </mxCell>
        <mxCell id="8Pu2nY55P8cbUDqZ4kMR-3" value="Administrador" style="text;html=1;align=center;verticalAlign=middle;resizable=0;points=[];autosize=1;strokeColor=none;fillColor=none;" vertex="1" parent="1">
          <mxGeometry x="40" y="10" width="100" height="30" as="geometry" />
        </mxCell>
        <mxCell id="8Pu2nY55P8cbUDqZ4kMR-10" value="verificar_usuario(nombre_usuario, contraseña)" style="html=1;verticalAlign=bottom;endArrow=block;curved=0;rounded=0;entryX=0;entryY=0;entryDx=0;entryDy=5;entryPerimeter=0;" edge="1" parent="1" source="8Pu2nY55P8cbUDqZ4kMR-9" target="8Pu2nY55P8cbUDqZ4kMR-12">
          <mxGeometry width="80" relative="1" as="geometry">
            <mxPoint x="290" y="210" as="sourcePoint" />
            <mxPoint x="430.5" y="210" as="targetPoint" />
          </mxGeometry>
        </mxCell>
        <mxCell id="8Pu2nY55P8cbUDqZ4kMR-13" value="mostrar:_mensaje_exito()" style="html=1;verticalAlign=bottom;endArrow=open;dashed=1;endSize=8;curved=0;rounded=0;entryX=0.54;entryY=0.371;entryDx=0;entryDy=0;entryPerimeter=0;" edge="1" parent="1" source="8Pu2nY55P8cbUDqZ4kMR-12">
          <mxGeometry relative="1" as="geometry">
            <mxPoint x="595" y="300" as="sourcePoint" />
            <mxPoint x="344" y="300.44000000000005" as="targetPoint" />
            <Array as="points">
              <mxPoint x="390" y="300" />
            </Array>
          </mxGeometry>
        </mxCell>
        <mxCell id="8Pu2nY55P8cbUDqZ4kMR-14" value="mostrar:_mensaje_exito()" style="html=1;verticalAlign=bottom;endArrow=open;dashed=1;endSize=8;curved=0;rounded=0;" edge="1" parent="1">
          <mxGeometry relative="1" as="geometry">
            <mxPoint x="339.5" y="330" as="sourcePoint" />
            <mxPoint x="89.5" y="330" as="targetPoint" />
          </mxGeometry>
        </mxCell>
        <mxCell id="8Pu2nY55P8cbUDqZ4kMR-18" value="alt" style="shape=umlFrame;whiteSpace=wrap;html=1;pointerEvents=0;" vertex="1" parent="1">
          <mxGeometry x="70" y="370" width="570" height="70" as="geometry" />
        </mxCell>
        <mxCell id="8Pu2nY55P8cbUDqZ4kMR-21" value="mostrar_mensaje_error()" style="html=1;verticalAlign=bottom;endArrow=open;dashed=1;endSize=8;curved=0;rounded=0;" edge="1" parent="1" source="7baba1c4bc27f4b0-3" target="8Pu2nY55P8cbUDqZ4kMR-2">
          <mxGeometry relative="1" as="geometry">
            <mxPoint x="569.5" y="409.5" as="sourcePoint" />
            <mxPoint x="340" y="409.5" as="targetPoint" />
          </mxGeometry>
        </mxCell>
        <mxCell id="8Pu2nY55P8cbUDqZ4kMR-32" value="ver_datos_usuario(nombre_usuario)" style="html=1;verticalAlign=bottom;endArrow=block;curved=0;rounded=0;entryX=0;entryY=0;entryDx=0;entryDy=5;entryPerimeter=0;" edge="1" parent="1" source="8Pu2nY55P8cbUDqZ4kMR-28" target="8Pu2nY55P8cbUDqZ4kMR-33">
          <mxGeometry width="80" relative="1" as="geometry">
            <mxPoint x="339.5" y="509.5" as="sourcePoint" />
            <mxPoint x="565" y="509.5" as="targetPoint" />
            <Array as="points" />
          </mxGeometry>
        </mxCell>
      </root>
    </mxGraphModel>
  </diagram>
</mxfile>
